<?xml version="1.0" encoding="UTF-8"?>
<svg version="1.1" xmlns="http://www.w3.org/2000/svg" width="368" height="506" viewBox="325 258 368 506">
<path d="M0 0 C0.70900452 0.00021149 1.41800903 0.00042297 2.14849854 0.00064087 C15.39954647 0.0397093 28.05327539 1.46096933 41 4.375 C41.84159668 4.55691895 42.68319336 4.73883789 43.55029297 4.92626953 C55.96835373 7.66543965 67.50377486 11.97077068 79 17.375 C79.73492676 17.72046875 80.46985352 18.0659375 81.22705078 18.421875 C95.62969244 25.32844259 108.16330428 34.48987695 119.83984375 45.3671875 C121.86538639 47.24987994 123.94704391 49.03237061 126.0625 50.8125 C156.42129322 77.47491321 173.33238572 118.1094421 179 157.375 C179.27650391 159.16744141 179.27650391 159.16744141 179.55859375 160.99609375 C181.67711798 178.56387611 180.67333685 197.0906062 177 214.375 C176.82839355 215.18694824 176.65678711 215.99889648 176.47998047 216.83544922 C169.481753 248.91222196 154.99111516 277.47854039 138 305.375 C137.35627441 306.43605957 136.71254883 307.49711914 136.04931641 308.59033203 C124.36703651 327.81343369 112.31197916 346.79437315 100.02783203 365.63745117 C95.71498223 372.25830395 91.44445911 378.90559262 87.1875 385.5625 C86.52041016 386.60559326 85.85332031 387.64868652 85.16601562 388.72338867 C81.69992873 394.14558813 78.23761312 399.57018027 74.77734375 404.99609375 C74.08165283 406.08575439 73.38596191 407.17541504 72.66918945 408.2980957 C71.3630383 410.34397799 70.05806949 412.39061593 68.75463867 414.43823242 C64.06758292 421.77749401 59.2527033 429.02545341 54.41070557 436.26275635 C52.39303351 439.28380843 50.38402379 442.31058436 48.37496948 445.33737183 C46.18393783 448.63791534 43.99017683 451.93664111 41.79638672 455.23535156 C40.68487666 456.90764978 39.57419517 458.58049902 38.46435547 460.25390625 C32.55996419 469.15489364 26.61246763 478.0197014 20.46875 486.7578125 C19.74439255 487.79136368 19.74439255 487.79136368 19.00540161 488.84579468 C9.65890082 502.04554959 9.65890082 502.04554959 5 504.375 C3.01171875 504.61328125 3.01171875 504.61328125 0.6875 504.6875 C-0.07175781 504.72488281 -0.83101562 504.76226563 -1.61328125 504.80078125 C-6.62183939 503.90727415 -9.22187031 500.23456322 -12.05859375 496.3125 C-13.19241863 494.67184011 -14.31828304 493.02565961 -15.4375 491.375 C-16.68197633 489.56618926 -17.92677722 487.75760178 -19.171875 485.94921875 C-20.12223633 484.56162354 -20.12223633 484.56162354 -21.09179688 483.14599609 C-23.50629557 479.63978317 -25.96335242 476.16472105 -28.42138672 472.68896484 C-34.12731776 464.60727152 -39.64059955 456.43236477 -44.96875 448.09765625 C-48.33901853 442.82759399 -51.77603657 437.60169333 -55.20788574 432.37161255 C-62.63329967 421.05070782 -69.94220857 409.65969114 -77.19042969 398.22460938 C-80.51063253 392.996141 -83.84885582 387.77920517 -87.1875 382.5625 C-87.86530518 381.50329346 -88.54311035 380.44408691 -89.24145508 379.3527832 C-93.06002169 373.39031303 -96.89517948 367.43908015 -100.75 361.5 C-106.57938405 352.50800263 -112.31938965 343.46169388 -118 334.375 C-118.62068359 333.38290527 -119.24136719 332.39081055 -119.88085938 331.36865234 C-129.31700553 316.25265415 -138.46320043 301.01839107 -147 285.375 C-147.55316895 284.3658252 -148.10633789 283.35665039 -148.67626953 282.31689453 C-160.56337806 260.49602224 -169.59420884 238.6650216 -175 214.375 C-175.17789062 213.61960937 -175.35578125 212.86421875 -175.5390625 212.0859375 C-185.49942902 168.60814716 -174.8948282 120.92260427 -151.71875 83.52734375 C-126.41698509 44.15147211 -87.88526478 15.71132761 -42.3125 4.5625 C-41.51859863 4.36744873 -40.72469727 4.17239746 -39.90673828 3.97143555 C-26.74625602 0.95964337 -13.47630249 -0.03771242 0 0 Z " fill="#4A9BCC" transform="translate(511,258.625)"/>
<path d="M0 0 C0.6838678 0.00182281 1.3677356 0.00364563 2.07232666 0.00552368 C12.29580951 0.05138966 21.83920714 0.59961189 31.75 3.3125 C33.13792267 3.65664613 34.52594818 4.0003777 35.9140625 4.34375 C46.23205273 7.02314229 55.44294189 11.16000338 64.75 16.3125 C65.7090625 16.84101563 66.668125 17.36953125 67.65625 17.9140625 C96.87742788 34.77937196 116.99736936 62.50333201 127.1875 94.25 C127.42243164 94.98186523 127.65736328 95.71373047 127.89941406 96.46777344 C131.4169467 108.12513715 132.15962357 119.71716681 132.125 131.8125 C132.12412384 132.56161652 132.12324768 133.31073303 132.12234497 134.08255005 C131.98117915 170.74805219 117.53209896 203.38024835 91.75 229.3125 C91.27836426 229.78816406 90.80672852 230.26382813 90.32080078 230.75390625 C66.78420267 254.15500752 34.1982379 266.59243201 1.25 266.8125 C-10.63976504 266.72551111 -21.81261968 265.57672482 -33.25 262.3125 C-34.33015381 262.00699219 -34.33015381 262.00699219 -35.43212891 261.6953125 C-56.93039758 255.36740966 -75.04039333 243.58321975 -91.25 228.3125 C-91.91386719 227.71308594 -92.57773437 227.11367188 -93.26171875 226.49609375 C-116.57630133 204.60024845 -130.59484769 170.65342965 -131.5859375 139.0859375 C-131.76461393 124.38636499 -131.32576503 110.48962096 -127.25 96.3125 C-127.04632813 95.59384766 -126.84265625 94.87519531 -126.6328125 94.13476562 C-121.54838434 76.85712548 -112.91350659 60.99793068 -101.25 47.3125 C-100.49847656 46.42175781 -99.74695313 45.53101563 -98.97265625 44.61328125 C-82.07446072 25.22044877 -60.16796901 11.9471345 -35.625 4.5625 C-34.96910889 4.36374268 -34.31321777 4.16498535 -33.63745117 3.96020508 C-22.49590278 0.76967698 -11.55722056 -0.04885726 0 0 Z " fill="#F8F9F9" transform="translate(511.25,306.6875)"/>
<path d="M0 0 C3.03780062 0.83539517 4.50274089 2.29079395 6.45263672 4.72436523 C8.51771294 8.59505938 8.01061286 12.78935809 7.8125 17.0625 C7.78994141 17.98933594 7.76738281 18.91617187 7.74414062 19.87109375 C7.68553677 22.14492335 7.6035693 24.41534886 7.5 26.6875 C7.95850342 26.32922119 8.41700684 25.97094238 8.8894043 25.60180664 C10.9817128 23.97521829 13.08437706 22.3625773 15.1875 20.75 C15.90873047 20.18603516 16.62996094 19.62207031 17.37304688 19.04101562 C18.43168945 18.23374023 18.43168945 18.23374023 19.51171875 17.41015625 C20.15584717 16.91265869 20.79997559 16.41516113 21.46362305 15.90258789 C23.85287058 14.47694529 25.73532252 13.95648512 28.5 13.6875 C31.3125 15.1875 31.3125 15.1875 33.5 17.6875 C34.02045503 20.99298537 34.30080338 23.46716038 32.40161133 26.36132812 C30.84326377 28.07221028 29.21420085 29.63291254 27.5 31.1875 C26.90711182 31.75138428 26.31422363 32.31526855 25.70336914 32.89624023 C21.95501637 36.43637953 18.13236725 39.90709365 14.18359375 43.22265625 C13.62800781 43.70605469 13.07242188 44.18945312 12.5 44.6875 C11.81784424 45.22528076 11.13568848 45.76306152 10.43286133 46.31713867 C7.75717364 49.59846389 7.95726738 51.87965479 7.890625 56.078125 C7.87408875 56.78273865 7.85755249 57.48735229 7.84051514 58.21331787 C7.79208861 60.45480102 7.77067813 62.69560613 7.75 64.9375 C7.72183552 66.46097151 7.69190741 67.98441152 7.66015625 69.5078125 C7.58633407 73.23422756 7.53672531 76.9605138 7.5 80.6875 C8.16 80.6875 8.82 80.6875 9.5 80.6875 C9.75265625 80.12546875 10.0053125 79.5634375 10.265625 78.984375 C11.68059802 76.35145052 13.3232878 74.22267028 15.25 71.9375 C15.90484375 71.13828125 16.5596875 70.3390625 17.234375 69.515625 C19.5 67.6875 19.5 67.6875 22.61328125 67.33203125 C25.5 67.6875 25.5 67.6875 27.9375 69.125 C29.9479958 72.42221311 29.81531074 74.37750742 29.18334961 78.12084961 C28.44587411 80.89079598 27.36826605 83.01272311 25.93359375 85.48828125 C25.47911865 86.28016846 25.02464355 87.07205566 24.55639648 87.88793945 C24.20778564 88.48179443 23.8591748 89.07564941 23.5 89.6875 C27.17972027 87.68474949 30.84480969 85.65802584 34.49853516 83.60839844 C35.7422294 82.91519181 36.98961829 82.22856973 38.24072266 81.54882812 C40.04310577 80.56805641 41.83068369 79.56403098 43.6171875 78.5546875 C44.69597168 77.95769043 45.77475586 77.36069336 46.88623047 76.74560547 C51.23487464 73.32144422 51.61366981 68.73093083 52.5 63.5 C52.665 62.55382812 52.83 61.60765625 53 60.6328125 C53.165 59.66085937 53.33 58.68890625 53.5 57.6875 C55.67531306 44.87354651 55.67531306 44.87354651 57.5 40.6875 C61.2205836 38.20711093 63.09796571 38.22412797 67.5 38.6875 C70 40.125 70 40.125 71.5 42.6875 C71.64083465 45.77305926 71.07826478 48.66413138 70.5 51.6875 C70.32597656 52.6878125 70.15195312 53.688125 69.97265625 54.71875 C69.5029058 57.37952629 69.01079417 60.03434583 68.5 62.6875 C69.49 62.0378125 70.48 61.388125 71.5 60.71875 C72.83273662 59.87405778 74.16610404 59.03036026 75.5 58.1875 C76.14839844 57.75824219 76.79679688 57.32898438 77.46484375 56.88671875 C82.39944666 53.80869911 85.69273881 53.13681144 91.5 53.6875 C93.5 54.6875 93.5 54.6875 94.5 56.6875 C95.29956467 61.7373821 95.29956467 61.7373821 94.5 64.6875 C92.02721703 67.2932933 89.11170108 68.93129351 86 70.6875 C84.78376953 71.42033203 84.78376953 71.42033203 83.54296875 72.16796875 C81.54264893 73.36816064 79.53027367 74.5389597 77.5 75.6875 C80.91198211 78.49081194 84.66757368 80.35288326 88.625 82.25 C95.23091977 85.41841977 95.23091977 85.41841977 97.5 87.6875 C97.31752046 91.0329582 97.07445993 93.69815234 95.375 96.625 C92.42951587 98.29410767 89.76019006 98.1479218 86.5 97.6875 C82.18875627 96.38031258 78.0099208 94.75692617 73.8125 93.125 C71.58327079 92.25956453 69.35031982 91.40363806 67.11328125 90.55859375 C66.13141846 90.17630615 65.14955566 89.79401855 64.13793945 89.40014648 C60.16882851 88.32788042 58.44149289 89.1859366 54.87451172 91.08618164 C53.90271973 91.66746826 52.93092773 92.24875488 51.9296875 92.84765625 C50.86878906 93.47607422 49.80789063 94.10449219 48.71484375 94.75195312 C47.61269531 95.41130859 46.51054688 96.07066406 45.375 96.75 C43.18724162 98.05731903 40.99724952 99.3609097 38.8046875 100.66015625 C37.83515137 101.24031494 36.86561523 101.82047363 35.86669922 102.41821289 C33.5 103.6875 33.5 103.6875 31.5 103.6875 C31.5 104.3475 31.5 105.0075 31.5 105.6875 C32.634375 105.64625 33.76875 105.605 34.9375 105.5625 C39.53663184 105.5706981 44.18608805 106.01384536 48.5 107.6875 C50.98836965 111.42005448 51.04226552 113.27190935 50.5 117.6875 C48.75 120.125 48.75 120.125 45.5 121.6875 C40.09577492 122.20359244 34.73795753 122.23250906 29.5 120.6875 C33.78204784 125.29116224 38.85715677 128.22820009 44.20825195 131.45288086 C45.93793845 132.5002655 47.653236 133.56889917 49.36914062 134.63867188 C50.46291016 135.30060547 51.55667969 135.96253906 52.68359375 136.64453125 C53.67931396 137.25272705 54.67503418 137.86092285 55.70092773 138.48754883 C58.97535597 139.89128322 60.16995163 139.81335464 63.5 138.6875 C65.26619288 137.97362217 67.01201035 137.20797867 68.73828125 136.40234375 C69.72376953 135.95439453 70.70925781 135.50644531 71.72460938 135.04492188 C73.77502686 134.10206703 75.82195918 133.151594 77.86523438 132.19335938 C83.72380944 129.54841311 88.05704211 127.9757348 94.5 128.6875 C96.5 129.75 96.5 129.75 97.5 131.6875 C98.10015477 135.73854467 98.08291839 137.83394093 95.75 141.25 C91.05438999 145.32133816 83.75085524 149.6875 77.5 149.6875 C77.5 150.3475 77.5 151.0075 77.5 151.6875 C78.05558594 151.79320312 78.61117187 151.89890625 79.18359375 152.0078125 C81.95098442 152.81982932 84.09766283 154.06798335 86.5625 155.5625 C87.41972656 156.07554687 88.27695312 156.58859375 89.16015625 157.1171875 C91.2589769 158.52574493 92.92217946 159.72028145 94.5 161.6875 C94.99704206 165.59283049 95.12822766 167.76932112 92.875 171.0625 C89.92506206 173.08087859 88.06963372 173.47650838 84.5 173.6875 C81.39453125 172.32421875 81.39453125 172.32421875 78.3125 170.375 C77.28769531 169.73949219 76.26289062 169.10398437 75.20703125 168.44921875 C73.29739831 167.20644176 71.39575911 165.9513394 69.5 164.6875 C69.7165625 165.57888672 69.7165625 165.57888672 69.9375 166.48828125 C71.35344863 172.8108852 72.53678181 179.22097425 71.5 185.6875 C68.93933131 188.92599275 67.47062507 189.5290306 63.4375 190.1875 C59.73453822 189.55720863 58.79659723 188.62601817 56.5 185.6875 C55.85668945 182.54638672 55.85668945 182.54638672 55.61328125 178.8671875 C55.49277781 177.51701226 55.36677279 176.167319 55.23583984 174.81811523 C55.1363504 173.77238846 55.1363504 173.77238846 55.03485107 172.70553589 C54.10122803 160.49363662 54.10122803 160.49363662 47.78515625 150.62890625 C44.27323 148.36777033 40.54945472 146.81198373 36.60888672 145.45361328 C33.49516545 144.32246518 30.80009506 142.72645318 27.9375 141.0625 C26.45998318 140.26775841 24.98155993 139.47467871 23.5 138.6875 C23.933125 139.32816406 24.36625 139.96882812 24.8125 140.62890625 C27.39995427 144.64784563 29.34503274 147.81404819 30.1875 152.5625 C29.5 155.6875 29.5 155.6875 27.375 158.125 C23.84393878 160.04405501 22.44232326 160.63365758 18.5 159.6875 C14.60491293 156.16614197 11.63672148 151.87125483 8.5 147.6875 C5.63991243 163.98765892 5.63991243 163.98765892 9.60626221 179.60968018 C13.82538874 185.42051161 19.1670272 190.15408933 24.60717773 194.79077148 C25.18108749 195.28117416 25.75499725 195.77157684 26.34629822 196.27684021 C27.44214888 197.19429819 28.55585235 198.09097897 29.68873596 198.96229553 C32.46125262 201.20248899 33.44382221 202.25205497 33.90820312 205.8515625 C33.43360538 209.1487679 33.06536937 210.53589988 30.5 212.6875 C27.22543526 213.1398543 24.68082473 213.37416722 21.7434082 211.66601562 C19.97771212 210.26461319 18.32854518 208.79530159 16.6875 207.25 C12.87036184 203.57974546 12.87036184 203.57974546 8.5 200.6875 C8.4906543 201.26717529 8.48130859 201.84685059 8.47167969 202.4440918 C8.4177593 205.08856946 8.33415871 207.73131893 8.25 210.375 C8.23582031 211.28701172 8.22164062 212.19902344 8.20703125 213.13867188 C8.05138617 217.4189115 7.89001166 220.04320402 5.63671875 223.765625 C2.85284836 226.26958155 1.23910285 226.76380822 -2.5 226.6875 C-5.171875 225.44921875 -5.171875 225.44921875 -7.5 222.6875 C-8.13584145 218.59308401 -7.9682417 214.56824908 -7.8125 210.4375 C-7.78994141 209.31085938 -7.76738281 208.18421875 -7.74414062 207.0234375 C-7.68524254 204.24344768 -7.60304201 201.46614668 -7.5 198.6875 C-8.03254395 199.15365723 -8.56508789 199.61981445 -9.11376953 200.10009766 C-9.82130371 200.71933105 -10.52883789 201.33856445 -11.2578125 201.9765625 C-12.30412842 202.89236084 -12.30412842 202.89236084 -13.37158203 203.82666016 C-23.36192385 212.56104709 -23.36192385 212.56104709 -27.875 213.0625 C-31.5 212.6875 -31.5 212.6875 -33.9375 210.5 C-35.68215431 207.35962225 -36.04176965 206.20126313 -35.5 202.6875 C-33.375 200.0390625 -33.375 200.0390625 -30.5 197.3125 C-29.99887695 196.83135742 -29.49775391 196.35021484 -28.98144531 195.85449219 C-25.60007148 192.63300441 -22.13231042 189.50897017 -18.546875 186.515625 C-17.87140625 185.91234375 -17.1959375 185.3090625 -16.5 184.6875 C-15.91404053 184.29167725 -15.32808105 183.89585449 -14.72436523 183.48803711 C-11.16621579 180.71069255 -9.67223512 178.74944228 -8.93701172 174.21630859 C-8.8108535 170.03878619 -8.88790318 165.92291098 -9.0625 161.75 C-9.09765669 160.28848614 -9.12958808 158.82689094 -9.15820312 157.36523438 C-9.23489385 153.80428426 -9.35543196 150.24641561 -9.5 146.6875 C-10.06847656 147.46996094 -10.63695312 148.25242187 -11.22265625 149.05859375 C-11.99480469 150.07050781 -12.76695312 151.08242188 -13.5625 152.125 C-14.31660156 153.13433594 -15.07070313 154.14367187 -15.84765625 155.18359375 C-19.11469836 158.26779698 -21.05616039 158.65153829 -25.5 158.6875 C-28.5 156.6875 -28.5 156.6875 -30.5 153.6875 C-30.73796448 147.50042356 -27.6400679 142.79735219 -24.5 137.6875 C-41.05829313 144.65741189 -41.05829313 144.65741189 -52.62890625 156.63671875 C-54.16835774 163.04869943 -55.00463026 169.63381129 -56 176.14648438 C-56.165 177.18482422 -56.33 178.22316406 -56.5 179.29296875 C-56.644375 180.23293701 -56.78875 181.17290527 -56.9375 182.14135742 C-57.49373555 184.65914413 -58.09239321 186.52874193 -59.5 188.6875 C-63.08003773 189.88084591 -65.74315896 190.02293224 -69.5 189.6875 C-71.4375 188.25 -71.4375 188.25 -72.5 185.6875 C-73.27511029 178.77000628 -72.15317189 171.5807962 -71.5 164.6875 C-72.57378906 165.27660156 -73.64757812 165.86570312 -74.75390625 166.47265625 C-76.18959773 167.23272821 -77.62582446 167.99178974 -79.0625 168.75 C-79.76697266 169.13994141 -80.47144531 169.52988281 -81.19726562 169.93164062 C-86.0112934 172.43848458 -89.05179674 173.18524062 -94.5 171.6875 C-96.5 170 -96.5 170 -97.5 167.6875 C-97.31540504 164.05875178 -97.10961238 162.27842694 -94.4609375 159.7109375 C-93.60757812 159.16695312 -92.75421875 158.62296875 -91.875 158.0625 C-90.9778125 157.48113281 -90.080625 156.89976562 -89.15625 156.30078125 C-85.96686982 154.36370182 -82.7788875 152.46950407 -79.5 150.6875 C-85.15488199 147.80693381 -90.7999341 145.05574088 -96.6875 142.6796875 C-98.5 141.6875 -98.5 141.6875 -100.5 138.6875 C-100.32135713 135.35283315 -100.05604977 132.7014731 -98.4375 129.75 C-95.20078147 127.97502532 -92.0522221 128.18567211 -88.5 128.6875 C-84.15769256 130.11384783 -79.99911613 131.9221787 -75.8125 133.75 C-73.60544012 134.71120075 -71.39334318 135.66093896 -69.17578125 136.59765625 C-68.20552002 137.02183838 -67.23525879 137.44602051 -66.2355957 137.88305664 C-62.1230536 139.09241195 -59.7260591 138.30312264 -55.96044922 136.41235352 C-55.08404785 135.88569092 -54.20764648 135.35902832 -53.3046875 134.81640625 C-51.86029297 133.95499023 -51.86029297 133.95499023 -50.38671875 133.07617188 C-49.39285156 132.47353516 -48.39898437 131.87089844 -47.375 131.25 C-46.37339844 130.65123047 -45.37179687 130.05246094 -44.33984375 129.43554688 C-40.68256663 127.24363515 -37.04810296 125.05290198 -33.5 122.6875 C-34.38042969 122.66171875 -35.26085937 122.6359375 -36.16796875 122.609375 C-37.32941406 122.55265625 -38.49085938 122.4959375 -39.6875 122.4375 C-40.83605469 122.39109375 -41.98460937 122.3446875 -43.16796875 122.296875 C-47.04643682 121.58756548 -48.74702152 120.47056568 -51.5 117.6875 C-52.625 114.25 -52.625 114.25 -52.5 110.6875 C-50.87028466 107.68882377 -50.49129361 107.03133303 -47.5 105.6875 C-42.82901072 104.97417019 -38.21725746 104.80294437 -33.5 104.6875 C-34.18102783 104.2435791 -34.86205566 103.7996582 -35.5637207 103.34228516 C-38.64675122 101.33251639 -41.72962737 99.32251095 -44.8125 97.3125 C-46.4202832 96.26449219 -46.4202832 96.26449219 -48.06054688 95.1953125 C-49.08857422 94.525 -50.11660156 93.8546875 -51.17578125 93.1640625 C-52.12364502 92.54611816 -53.07150879 91.92817383 -54.0480957 91.29150391 C-55.87113536 90.09889507 -57.68739235 88.8959051 -59.5 87.6875 C-63.75402601 88.03221333 -67.22307296 89.26027476 -71.08984375 91.0078125 C-72.12173828 91.46027344 -73.15363281 91.91273438 -74.21679688 92.37890625 C-76.36358923 93.33448271 -78.50684906 94.29803524 -80.64648438 95.26953125 C-90.54256963 99.5786189 -90.54256963 99.5786189 -96.5 97.6875 C-99.07572291 95.44412843 -99.43881541 94.05460755 -100 90.6875 C-99.5 87.6875 -99.5 87.6875 -97.6875 85.6875 C-84.9375 77.6875 -84.9375 77.6875 -80.5 77.6875 C-80.5 77.0275 -80.5 76.3675 -80.5 75.6875 C-81.22960937 75.41550781 -81.95921875 75.14351563 -82.7109375 74.86328125 C-88.01260307 72.62826537 -92.88529735 69.58715017 -96.625 65.1875 C-97.78004438 61.88737319 -97.5803477 60.00056629 -96.5 56.6875 C-94.19580775 54.02881663 -92.82372698 53.7200713 -89.31640625 53.3671875 C-84.66208398 53.75782663 -81.95045583 55.25187053 -78.0625 57.6875 C-77.42634766 58.0690625 -76.79019531 58.450625 -76.13476562 58.84375 C-74.58155008 59.77801499 -73.03955137 60.73088556 -71.5 61.6875 C-71.644375 60.81867188 -71.78875 59.94984375 -71.9375 59.0546875 C-72.123125 57.90226562 -72.30875 56.74984375 -72.5 55.5625 C-72.685625 54.42554688 -72.87125 53.28859375 -73.0625 52.1171875 C-74.14770138 43.60998379 -74.14770138 43.60998379 -71.4375 39.75 C-68.5 37.6875 -68.5 37.6875 -64.875 37.625 C-61.03984054 38.83236501 -60.44010258 39.28822168 -58.5 42.6875 C-57.85644782 45.36181685 -57.35247521 47.91745188 -56.9375 50.625 C-56.8029541 51.37918213 -56.6684082 52.13336426 -56.52978516 52.91040039 C-55.91503983 56.45024029 -55.49950021 59.73947837 -55.46484375 63.34375 C-55.36420858 67.01912156 -55.10902263 69.36336533 -53.5 72.6875 C-48.62106708 77.15628423 -42.41006864 79.85616479 -36.5 82.6875 C-35.2333024 83.33259779 -33.96876772 83.98197067 -32.70703125 84.63671875 C-29.98913595 86.02976186 -27.25953593 87.37951187 -24.5 88.6875 C-24.933125 88.04683594 -25.36625 87.40617187 -25.8125 86.74609375 C-28.39995427 82.72715437 -30.34503274 79.56095181 -31.1875 74.8125 C-30.5 71.6875 -30.5 71.6875 -28.3125 69.1875 C-25.5 67.6875 -25.5 67.6875 -23.1171875 67.8203125 C-19.79136976 68.92229987 -18.22019369 70.53626112 -15.8125 73.0625 C-15.04550781 73.85398437 -14.27851563 74.64546875 -13.48828125 75.4609375 C-11.5 77.6875 -11.5 77.6875 -9.5 80.6875 C-5.93009775 64.45085288 -5.93009775 64.45085288 -9.61474609 48.72821045 C-13.96117263 42.71401849 -19.49709561 37.82426271 -25.11279297 33.02783203 C-25.71027344 32.51628067 -26.30775391 32.00472931 -26.92333984 31.47767639 C-28.06257496 30.52173199 -29.22004749 29.58695796 -30.39746094 28.67845154 C-33.41027035 26.23689012 -34.46956706 24.79987522 -35.49658203 21.00756836 C-35.5 17.6875 -35.5 17.6875 -33.375 15.25 C-30.14675043 13.49551654 -29.09252365 13.12933955 -25.5 13.6875 C-22.92379224 15.21728857 -20.6715484 17.08298644 -18.375 19 C-17.44494141 19.74926758 -17.44494141 19.74926758 -16.49609375 20.51367188 C-13.69051899 22.7913159 -11.02778014 25.10138648 -8.5 27.6875 C-8.49589111 27.04723877 -8.49178223 26.40697754 -8.48754883 25.74731445 C-8.45453962 22.83062095 -8.38388974 19.91599616 -8.3125 17 C-8.30379883 15.48889648 -8.30379883 15.48889648 -8.29492188 13.94726562 C-8.07203384 6.44336854 -8.07203384 6.44336854 -5.10546875 2.5234375 C-2.5 0.6875 -2.5 0.6875 0 0 Z " fill="#55AAD9" transform="translate(512.5,331.3125)"/>
<path d="M0 0 C3.5 0.5 3.5 0.5 6 1.9375 C8.32391293 5.90751792 7.33839916 9.11655874 6.5 13.5 C6.23896484 15.00046875 6.23896484 15.00046875 5.97265625 16.53125 C5.5029058 19.19202629 5.01079417 21.84684583 4.5 24.5 C5.985 23.52546875 5.985 23.52546875 7.5 22.53125 C8.83273662 21.68655778 10.16610404 20.84286026 11.5 20 C12.14839844 19.57074219 12.79679688 19.14148438 13.46484375 18.69921875 C18.39944666 15.62119911 21.69273881 14.94931144 27.5 15.5 C29.5 16.5 29.5 16.5 30.5 18.5 C31.29956467 23.5498821 31.29956467 23.5498821 30.5 26.5 C28.02721703 29.1057933 25.11170108 30.74379351 22 32.5 C20.78376953 33.23283203 20.78376953 33.23283203 19.54296875 33.98046875 C17.54264893 35.18066064 15.53027367 36.3514597 13.5 37.5 C16.91198211 40.30331194 20.66757368 42.16538326 24.625 44.0625 C31.23091977 47.23091977 31.23091977 47.23091977 33.5 49.5 C33.31752046 52.8454582 33.07445993 55.51065234 31.375 58.4375 C27.69184631 60.52462043 23.84129315 59.86630252 19.91552734 58.79418945 C17.00123654 57.81929402 14.12575709 56.77065125 11.25 55.6875 C10.25742187 55.33107422 9.26484375 54.97464844 8.2421875 54.60742188 C0.2522293 51.65720018 0.2522293 51.65720018 -2.5 48.5 C-5.26554908 49.52720394 -7.6346229 50.58654329 -10.125 52.1875 C-10.90875 52.620625 -11.6925 53.05375 -12.5 53.5 C-13.49 53.17 -14.48 52.84 -15.5 52.5 C-15.5 49.53 -15.5 46.56 -15.5 43.5 C-15.995 43.995 -15.995 43.995 -16.5 44.5 C-16.995 43.015 -16.995 43.015 -17.5 41.5 C-16.89285156 40.60152344 -16.28570313 39.70304687 -15.66015625 38.77734375 C-13.22528674 35.0832108 -12.63340791 32.40864188 -11.9375 28.0625 C-11.6958057 26.65225913 -11.45360508 25.24210496 -11.2109375 23.83203125 C-10.97327227 22.38813359 -10.73629325 20.94412282 -10.5 19.5 C-10.04353071 16.74546559 -9.56163068 13.9970926 -9.0625 11.25 C-8.85753906 10.04859375 -8.65257812 8.8471875 -8.44140625 7.609375 C-6.95283173 2.69275544 -5.09687745 0.72812535 0 0 Z " fill="#5BB0DE" transform="translate(576.5,369.5)"/>
<path d="M0 0 C6.62714492 0.63041061 10.3377039 5.66777569 14.77661133 10.14526367 C16.30802081 11.6830023 17.86416527 13.19216179 19.42382812 14.70117188 C20.40526526 15.67806323 21.38513831 16.65652899 22.36328125 17.63671875 C23.25313721 18.52061279 24.14299316 19.40450684 25.05981445 20.31518555 C27.37880486 23.52418737 27.49068713 25.12461424 27 29 C25.9375 31.375 25.9375 31.375 24 33 C20.72543526 33.4523543 18.18082473 33.68666722 15.2434082 31.97851562 C13.47771212 30.57711319 11.82854518 29.10780159 10.1875 27.5625 C6.37036184 23.89224546 6.37036184 23.89224546 2 21 C1.9906543 21.57967529 1.98130859 22.15935059 1.97167969 22.7565918 C1.9177593 25.40106946 1.83415871 28.04381893 1.75 30.6875 C1.72873047 32.05551758 1.72873047 32.05551758 1.70703125 33.45117188 C1.55138617 37.7314115 1.39001166 40.35570402 -0.86328125 44.078125 C-3.64715164 46.58208155 -5.26089715 47.07630822 -9 47 C-11.640625 45.79296875 -11.640625 45.79296875 -14 43 C-14.7839989 38.76021141 -14.79096196 34.55282178 -14.8125 30.25 C-14.83763672 29.07566406 -14.86277344 27.90132812 -14.88867188 26.69140625 C-14.94756358 23.79393435 -14.98382969 20.89797395 -15 18 C-14.34 17.67 -13.68 17.34 -13 17 C-12.05288658 14.9584524 -12.05288658 14.9584524 -11.3125 12.5625 C-11.04050781 11.75941406 -10.76851563 10.95632813 -10.48828125 10.12890625 C-9.75388718 7.96235278 -9.75388718 7.96235278 -11 6 C-9.1128125 6.0928125 -9.1128125 6.0928125 -7.1875 6.1875 C-3.88654004 6.20365408 -3.88654004 6.20365408 -1 4.6875 C0.2549012 2.89677829 0.2549012 2.89677829 0 0 Z " fill="#59AFDD" transform="translate(519,511)"/>
<path d="M0 0 C4.36919628 4.13923858 6.68753909 6.50031273 7.4375 12.5 C7 16 7 16 4.875 18.4375 C1.34393878 20.35655501 -0.05767674 20.94615758 -4 20 C-7.89897301 16.47512888 -10.85807948 12.18922736 -14 8 C-14.33 17.9 -14.66 27.8 -15 38 C-15.33 38 -15.66 38 -16 38 C-16.02505615 37.13721436 -16.0501123 36.27442871 -16.07592773 35.38549805 C-16.17111385 32.18176231 -16.27034444 28.97818463 -16.37231445 25.7746582 C-16.41560218 24.38864017 -16.45728164 23.00257094 -16.49731445 21.61645508 C-16.55516584 19.62308202 -16.61929776 17.62989435 -16.68359375 15.63671875 C-16.72025146 14.43748779 -16.75690918 13.23825684 -16.79467773 12.00268555 C-16.87733025 8.95005651 -16.87733025 8.95005651 -18 6 C-17.34 5.67 -16.68 5.34 -16 5 C-15.236875 5.37125 -14.47375 5.7425 -13.6875 6.125 C-10.94928938 7.36103939 -10.94928938 7.36103939 -8.3125 5.6875 C-7.1678125 4.8521875 -7.1678125 4.8521875 -6 4 C-5.34 3.67 -4.68 3.34 -4 3 C-3.67 4.32 -3.34 5.64 -3 7 C-2.01 6.34 -1.02 5.68 0 5 C0.25030977 2.41619823 0.25030977 2.41619823 0 0 Z " fill="#49A3D4" transform="translate(535,471)"/>
<path d="M0 0 C2.67578125 1.75 2.67578125 1.75 5.3125 4 C6.19550781 4.7425 7.07851563 5.485 7.98828125 6.25 C8.98408203 7.11625 8.98408203 7.11625 10 8 C9.01 8 8.02 8 7 8 C4.39719432 8.32041397 4.39719432 8.32041397 2 9 C1.67 9.66 1.34 10.32 1 11 C-0.32 10.67 -1.64 10.34 -3 10 C-3.41436627 13.94543626 -3.41436627 13.94543626 -1.25585938 16.19824219 C-0.45986328 16.97329102 0.33613281 17.74833984 1.15625 18.546875 C2.01347656 19.39121094 2.87070312 20.23554688 3.75390625 21.10546875 C5.11322266 22.41451172 5.11322266 22.41451172 6.5 23.75 C7.85931641 25.08224609 7.85931641 25.08224609 9.24609375 26.44140625 C11.48871616 28.63681556 13.74012768 30.82237387 16 33 C15.67 33.66 15.34 34.32 15 35 C11.58090299 31.7297419 8.1824061 28.43985726 4.80102539 25.13061523 C3.64917811 24.00885412 2.49199155 22.8925475 1.3293457 21.78198242 C-0.34573185 20.18007742 -2.00031792 18.55922124 -3.65234375 16.93359375 C-4.17215317 16.44475204 -4.69196259 15.95591034 -5.2275238 15.45225525 C-8.82859845 11.85457753 -9.94896819 9.08087798 -10 4 C-6.91584625 0.46229423 -4.61691165 -0.6051622 0 0 Z " fill="#4DA6D8" transform="translate(487,345)"/>
<path d="M0 0 C1.32 0.33 2.64 0.66 4 1 C3.67 1.99 3.34 2.98 3 4 C4.32 4.33 5.64 4.66 7 5 C6.67 3.68 6.34 2.36 6 1 C8.97 1.495 8.97 1.495 12 2 C11.67 2.99 11.34 3.98 11 5 C11.66 5.33 12.32 5.66 13 6 C12.34 6.66 11.68 7.32 11 8 C9.68 8 8.36 8 7 8 C7 8.66 7 9.32 7 10 C3.34683329 8.75023244 2.21934164 8.32901247 0 5 C-0.125 2.3125 -0.125 2.3125 0 0 Z " fill="#5BB0DE" transform="translate(482,480)"/>
<path d="M0 0 C1.11375 0.4640625 1.11375 0.4640625 2.25 0.9375 C4.50692176 1.8094925 6.6450153 2.47667007 9 3 C9.33 2.34 9.66 1.68 10 1 C11.32 1.66 12.64 2.32 14 3 C13 6 13 6 11 8 C11 8.99 11 9.98 11 11 C10.34 10.34 9.68 9.68 9 9 C6.23789405 8.71786556 6.23789405 8.71786556 3.125 8.8125 C2.07570313 8.81894531 1.02640625 8.82539063 -0.0546875 8.83203125 C-2.91113769 8.90091797 -2.91113769 8.90091797 -5.2578125 9.57421875 C-7 10 -7 10 -9 9 C-6.14206684 6.14206684 -3.85334416 6.59200059 0.125 6.375 C1.40632813 6.30023438 2.68765625 6.22546875 4.0078125 6.1484375 C4.99523437 6.09945313 5.98265625 6.05046875 7 6 C6.4946875 5.65066406 5.989375 5.30132812 5.46875 4.94140625 C4.8190625 4.48636719 4.169375 4.03132813 3.5 3.5625 C2.8503125 3.11003906 2.200625 2.65757812 1.53125 2.19140625 C1.0259375 1.79824219 0.520625 1.40507812 0 1 C0 0.67 0 0.34 0 0 Z " fill="#4DA5D5" transform="translate(472,430)"/>
<path d="M0 0 C0.99 0.33 1.98 0.66 3 1 C2.7525 1.556875 2.505 2.11375 2.25 2.6875 C1.72001244 5.14034686 1.72001244 5.14034686 3.625 7.1875 C4.40875 8.115625 5.1925 9.04375 6 10 C6.81924069 11.40090158 7.60871893 12.81944281 8.375 14.25 C10.95906293 19.03977396 13.91739318 23.51909731 17 28 C16.34 28.33 15.68 28.66 15 29 C12.5343743 25.2756075 10.07879923 21.54469281 7.625 17.8125 C6.92632812 16.75740234 6.22765625 15.70230469 5.5078125 14.61523438 C4.8375 13.59365234 4.1671875 12.57207031 3.4765625 11.51953125 C2.549646 10.11344604 2.549646 10.11344604 1.60400391 8.67895508 C0.10128317 6.16915985 -1.00325907 3.744302 -2 1 C-1.34 0.67 -0.68 0.34 0 0 Z " fill="#3891C6" transform="translate(463,696)"/>
<path d="M0 0 C0.33 0 0.66 0 1 0 C1.16754147 4.09317863 1.32810824 8.18656495 1.48217773 12.28027344 C1.53559149 13.67325222 1.59092043 15.06615893 1.64819336 16.45898438 C1.73012069 18.45943602 1.80462098 20.4601875 1.87890625 22.4609375 C1.9260376 23.66540527 1.97316895 24.86987305 2.02172852 26.11083984 C2 29 2 29 1 31 C0.34 31 -0.32 31 -1 31 C-1.02952761 27.70835283 -1.04697292 24.41674062 -1.0625 21.125 C-1.07087891 20.2071875 -1.07925781 19.289375 -1.08789062 18.34375 C-1.10964173 12.1664353 -0.73930108 6.13278165 0 0 Z " fill="#409FD3" transform="translate(505,382)"/>
<path d="M0 0 C3.61603624 0.76936941 4.8524143 1.57756705 6.9375 4.625 C7.1875 7.875 7.1875 7.875 6.9375 10.625 C5.9475 11.12 5.9475 11.12 4.9375 11.625 C4.9375 8.985 4.9375 6.345 4.9375 3.625 C3.51999437 3.74009661 2.10348831 3.86753658 0.6875 4 C-0.49585938 4.10441406 -0.49585938 4.10441406 -1.703125 4.2109375 C-4.148377 4.64007113 -5.91086903 5.41100638 -8.0625 6.625 C-3.93923956 0.80392644 -3.93923956 0.80392644 0 0 Z " fill="#409ED2" transform="translate(535.0625,398.375)"/>
<path d="M0 0 C3.64129828 3.26384663 5.79339906 7.44423263 8.28125 11.6015625 C9.84045315 14.27288794 9.84045315 14.27288794 13 15 C13.33 17.31 13.66 19.62 14 22 C10.04910832 18.47373687 7.49863458 14.3415312 4.75 9.875 C4.29109375 9.14667969 3.8321875 8.41835938 3.359375 7.66796875 C0 2.25897507 0 2.25897507 0 0 Z " fill="#3690C5" transform="translate(445,672)"/>
<path d="M0 0 C0.66 0.33 1.32 0.66 2 1 C1.41992188 1.556875 0.83984375 2.11375 0.2421875 2.6875 C-4.21109139 7.03789786 -8.24765805 11.35561155 -11.80859375 16.46875 C-13 18 -13 18 -15 19 C-14.41164423 15.55629054 -13.23873007 13.83506926 -10.83984375 11.328125 C-10.21142578 10.66425781 -9.58300781 10.00039063 -8.93554688 9.31640625 C-8.27619141 8.63449219 -7.61683594 7.95257813 -6.9375 7.25 C-6.27427734 6.55261719 -5.61105469 5.85523438 -4.92773438 5.13671875 C-3.29156515 3.41815251 -1.64891745 1.70632351 0 0 Z " fill="#3991C8" transform="translate(389,306)"/>
<path d="M0 0 C1.1446875 0.3403125 1.1446875 0.3403125 2.3125 0.6875 C-0.6780167 4.02307632 -3.61934627 5.83833921 -7.6875 7.6875 C-4.79076087 -0.55706522 -4.79076087 -0.55706522 0 0 Z " fill="#EBF3F8" transform="translate(542.6875,414.3125)"/>
<path d="M0 0 C0.6875 2.0625 0.6875 2.0625 1 4 C0.01 4 -0.98 4 -2 4 C-2.66 5.32 -3.32 6.64 -4 8 C-4.33 8 -4.66 8 -5 8 C-5.33 5.36 -5.66 2.72 -6 0 C-3 -1 -3 -1 0 0 Z " fill="#5EB1DE" transform="translate(446,508)"/>
<path d="M0 0 C0.99 0 1.98 0 3 0 C2.58578031 4.83256305 0.53586014 6.82679218 -3 10 C-2.67 8.35 -2.34 6.7 -2 5 C-2.66 4.67 -3.32 4.34 -4 4 C-4 3.34 -4 2.68 -4 2 C-3.01 2 -2.02 2 -1 2 C-0.67 1.34 -0.34 0.68 0 0 Z " fill="#3C93C7" transform="translate(534,734)"/>
<path d="M0 0 C0.99 0.66 1.98 1.32 3 2 C3 2.66 3 3.32 3 4 C3.99 4.33 4.98 4.66 6 5 C3.69 5.66 1.38 6.32 -1 7 C-1.33 6.34 -1.66 5.68 -2 5 C-1.0625 2.375 -1.0625 2.375 0 0 Z " fill="#5EAFDD" transform="translate(484,403)"/>
<path d="M0 0 C0.33 0.99 0.66 1.98 1 3 C-0.21484375 5.26171875 -0.21484375 5.26171875 -1.9375 7.6875 C-2.50339844 8.49574219 -3.06929687 9.30398438 -3.65234375 10.13671875 C-4.09707031 10.75160156 -4.54179688 11.36648438 -5 12 C-5.33 11.34 -5.66 10.68 -6 10 C-4.5625 7.375 -4.5625 7.375 -3 5 C-3.66 4.67 -4.32 4.34 -5 4 C-4.360625 3.71125 -3.72125 3.4225 -3.0625 3.125 C-0.84793921 2.17176549 -0.84793921 2.17176549 0 0 Z M-7 5 C-5 6 -5 6 -5 6 Z " fill="#3890C6" transform="translate(637,579)"/>
<path d="M0 0 C0.99 0 1.98 0 3 0 C3 0.66 3 1.32 3 2 C2.34 2 1.68 2 1 2 C1.33 3.98 1.66 5.96 2 8 C0.68 7.67 -0.64 7.34 -2 7 C-2.125 4.625 -2.125 4.625 -2 2 C-1.34 1.34 -0.68 0.68 0 0 Z " fill="#58B0DF" transform="translate(479,532)"/>
<path d="M0 0 C0.33 0.66 0.66 1.32 1 2 C-1.94906133 4.53946948 -4.12475186 6.37495998 -8 7 C-9.11375 7.2784375 -9.11375 7.2784375 -10.25 7.5625 C-10.8275 7.706875 -11.405 7.85125 -12 8 C-9.69716746 5.45868642 -7.32686207 3.92889705 -4.3125 2.3125 C-3.50425781 1.87550781 -2.69601562 1.43851562 -1.86328125 0.98828125 C-1.24839844 0.66214844 -0.63351562 0.33601563 0 0 Z " fill="#3E9DD2" transform="translate(550,413)"/>
<path d="M0 0 C1.38294718 0.01329757 2.76582404 0.03715018 4.1484375 0.0703125 C4.85484375 0.07933594 5.56125 0.08835937 6.2890625 0.09765625 C8.03399848 0.12123647 9.77876045 0.15710789 11.5234375 0.1953125 C11.5234375 0.5253125 11.5234375 0.8553125 11.5234375 1.1953125 C10.77578125 1.25589844 10.028125 1.31648438 9.2578125 1.37890625 C8.27296875 1.46269531 7.288125 1.54648437 6.2734375 1.6328125 C4.81164062 1.75462891 4.81164062 1.75462891 3.3203125 1.87890625 C0.59358044 2.11742607 0.59358044 2.11742607 -1.7109375 2.79296875 C-3.4765625 3.1953125 -3.4765625 3.1953125 -5.4765625 2.1953125 C-3.4765625 0.1953125 -3.4765625 0.1953125 0 0 Z " fill="#3C9CD2" transform="translate(468.4765625,436.8046875)"/>
<path d="M0 0 C0.86625 0.3403125 0.86625 0.3403125 1.75 0.6875 C0.76 1.0175 -0.23 1.3475 -1.25 1.6875 C-1.25 3.0075 -1.25 4.3275 -1.25 5.6875 C-2.57 5.6875 -3.89 5.6875 -5.25 5.6875 C-5.58 4.6975 -5.91 3.7075 -6.25 2.6875 C-2.80384615 -0.38942308 -2.80384615 -0.38942308 0 0 Z " fill="#45A3D6" transform="translate(484.25,345.3125)"/>
<path d="M0 0 C0.33 0.99 0.66 1.98 1 3 C-1.64 5.31 -4.28 7.62 -7 10 C-7.66 9.67 -8.32 9.34 -9 9 C-6.03 6.03 -3.06 3.06 0 0 Z " fill="#3DA0D6" transform="translate(501,511)"/>
<path d="M0 0 C3.16115776 1.36983503 3.9927092 1.9890638 6 5 C4.02 5.33 2.04 5.66 0 6 C0 5.01 0 4.02 0 3 C-0.66 2.67 -1.32 2.34 -2 2 C-1.34 2 -0.68 2 0 2 C0 1.34 0 0.68 0 0 Z " fill="#49A4D5" transform="translate(498,355)"/>
<path d="M0 0 C2.31 0.66 4.62 1.32 7 2 C7.33 3.98 7.66 5.96 8 8 C5.69 6.02 3.38 4.04 1 2 C0.67 2.66 0.34 3.32 0 4 C-0.33 3.01 -0.66 2.02 -1 1 C-0.67 0.67 -0.34 0.34 0 0 Z " fill="#42A0D3" transform="translate(518,476)"/>
<path d="M0 0 C3.65316671 1.24976756 4.78065836 1.67098753 7 5 C4.36 4.67 1.72 4.34 -1 4 C-0.67 2.68 -0.34 1.36 0 0 Z " fill="#3E94C8" transform="translate(432,546)"/>
<path d="M0 0 C2 1 2 1 3.1875 3.375 C4 6 4 6 3 9 C2.67 7.68 2.34 6.36 2 5 C1.01 5.33 0.02 5.66 -1 6 C-0.67 4.02 -0.34 2.04 0 0 Z " fill="#3991C7" transform="translate(673,362)"/>
<path d="M0 0 C0 3.51716303 -0.82445585 4.37121748 -3 7 C-3 6.34 -3 5.68 -3 5 C-3.99 4.67 -4.98 4.34 -6 4 C-4.02 2.68 -2.04 1.36 0 0 Z " fill="#48A5D7" transform="translate(466,462)"/>
<path d="M0 0 C0.33 0.66 0.66 1.32 1 2 C0.525625 2.45375 0.05125 2.9075 -0.4375 3.375 C-2.09027808 4.93258204 -2.09027808 4.93258204 -3 7 C-3.66 7 -4.32 7 -5 7 C-4.75 4.625 -4.75 4.625 -4 2 C-1.9375 0.6875 -1.9375 0.6875 0 0 Z " fill="#47A3D5" transform="translate(557,409)"/>
</svg>
